<svg width="10" height="11" viewBox="0 0 10 11" fill="none" xmlns="http://www.w3.org/2000/svg">
<path d="M8.824 4.84C9.328 4.84 9.744 4.424 9.744 3.92C9.744 3.416 9.328 3 8.824 3H8.16L8.416 1.672C8.52 1.136 8.08 0.599999 7.512 0.599999C7.064 0.599999 6.696 0.919999 6.608 1.376L6.288 3H4.8L5.056 1.672C5.16 1.136 4.72 0.599999 4.152 0.599999C3.704 0.599999 3.336 0.919999 3.248 1.376L2.928 3H1.912C1.408 3 0.992 3.416 0.992 3.92C0.992 4.424 1.408 4.84 1.912 4.84H2.568L2.192 6.76H1.176C0.672 6.76 0.256 7.176 0.256 7.68C0.256 8.184 0.672 8.6 1.176 8.6H1.832L1.576 9.928C1.472 10.464 1.912 11 2.48 11C2.928 11 3.296 10.68 3.384 10.224L3.704 8.6H5.192L4.936 9.928C4.832 10.464 5.272 11 5.84 11C6.288 11 6.656 10.68 6.744 10.224L7.064 8.6H8.08C8.584 8.6 9 8.184 9 7.68C9 7.176 8.584 6.76 8.08 6.76H7.424L7.8 4.84H8.824ZM4.064 6.76L4.44 4.84H5.928L5.552 6.76H4.064Z" fill="black"/>
</svg>
