<svg width="15" height="15" viewBox="0 0 11 11" fill="none" xmlns="http://www.w3.org/2000/svg">
<path d="M8.005 2.8125L8.4325 0.645C8.4925 0.344999 8.245 -7.15256e-07 7.8775 -7.15256e-07C7.6 -7.15256e-07 7.375 0.2025 7.3225 0.479999L6.865 2.8125H5.0875L5.515 0.645C5.575 0.344999 5.3275 -7.15256e-07 4.96 -7.15256e-07C4.6825 -7.15256e-07 4.4575 0.2025 4.405 0.479999L3.9475 2.8125H2.26C1.9525 2.8125 1.6975 3.0675 1.6975 3.375C1.6975 3.6825 1.9525 3.9375 2.26 3.9375H3.73L3.2125 6.5625H1.525C1.2175 6.5625 0.9625 6.8175 0.9625 7.125C0.9625 7.4325 1.2175 7.6875 1.525 7.6875H2.995L2.5675 9.855C2.5075 10.155 2.755 10.5 3.1225 10.5C3.4 10.5 3.625 10.2975 3.6775 10.02L4.135 7.6875H5.9125L5.485 9.855C5.425 10.155 5.6725 10.5 6.04 10.5C6.3175 10.5 6.5425 10.2975 6.595 10.02L7.0525 7.6875H8.74C9.0475 7.6875 9.3025 7.4325 9.3025 7.125C9.3025 6.8175 9.0475 6.5625 8.74 6.5625H7.27L7.7875 3.9375H9.475C9.7825 3.9375 10.0375 3.6825 10.0375 3.375C10.0375 3.0675 9.7825 2.8125 9.475 2.8125H8.005ZM4.3525 6.5625L4.87 3.9375H6.6475L6.13 6.5625H4.3525Z" fill="white" fill-opacity="0.8"/>
</svg>
