<svg width="20" height="20" viewBox="0 0 18 18" fill="none" xmlns="http://www.w3.org/2000/svg">
<path d="M9 -2.38419e-07C4.03 -2.38419e-07 1.49012e-08 4.03 1.49012e-08 9C1.49012e-08 13.97 4.03 18 9 18C13.97 18 18 13.97 18 9C18 4.03 13.97 -2.38419e-07 9 -2.38419e-07ZM9 16.5C4.86 16.5 1.5 13.14 1.5 9C1.5 4.86 4.86 1.5 9 1.5C13.14 1.5 16.5 4.86 16.5 9C16.5 13.14 13.14 16.5 9 16.5ZM9.5 8.5V4.75C9.5 4.34 9.16 4 8.75 4C8.33 4 8 4.34 8 4.75V9.25C8 9.66 8.33 10 8.75 10H12.75C13.16 10 13.5 9.66 13.5 9.25C13.5 8.83 13.16 8.5 12.75 8.5H9.5Z" fill="white" fill-opacity="0.8"/>
</svg>
