<svg width="16" height="16" viewBox="0 0 4 14" fill="none" xmlns="http://www.w3.org/2000/svg">
<path d="M2 3.6C2.768 3.6 3.4 2.968 3.4 2.2C3.4 1.432 2.768 0.799999 2 0.799999C1.232 0.799999 0.6 1.432 0.6 2.2C0.6 2.976 1.224 3.6 2 3.6ZM2 8.8C2.728 8.8 3.4 8.136 3.4 7.4C3.4 6.632 2.768 6 2 6C1.232 6 0.6 6.632 0.6 7.4C0.6 8.176 1.224 8.8 2 8.8ZM2 14C2.768 14 3.4 13.368 3.4 12.6C3.4 11.832 2.768 11.2 2 11.2C1.232 11.2 0.6 11.832 0.6 12.6C0.6 13.376 1.224 14 2 14Z" fill="white" fill-opacity="0.8"/>
</svg>
