<svg width="16" height="16" viewBox="0 0 10 15" fill="none" xmlns="http://www.w3.org/2000/svg">
<path d="M0.977 14.9C1.229 14.9 1.508 14.792 1.733 14.558L5 11.12L8.267 14.558C8.492 14.792 8.771 14.9 9.023 14.9C9.518 14.9 9.95 14.495 9.95 13.856V3.425C9.95 2.003 8.906 0.95 7.475 0.95H2.525C1.094 0.95 0.0500002 1.994 0.0500002 3.425V13.856C0.0500002 14.495 0.482 14.9 0.977 14.9ZM1.4 3.497C1.4 2.804 1.904 2.3 2.597 2.3H7.403C8.096 2.3 8.6 2.804 8.6 3.497V12.839C8.6 12.902 8.537 12.929 8.492 12.884L5.495 9.707C5.351 9.554 5.18 9.491 5 9.491C4.829 9.491 4.649 9.554 4.505 9.707L1.508 12.884C1.463 12.929 1.4 12.902 1.4 12.839V3.497Z" fill="white" fill-opacity="0.8"/>
</svg>
