<svg width="16" height="16" viewBox="0 0 15 15" fill="none" xmlns="http://www.w3.org/2000/svg">
<path d="M13.112 14.512C13.792 14.736 14.336 14.192 14.112 13.512L13.24 10.44C13.184 10.28 13.2 10.12 13.264 9.96C13.608 9.176 13.8 8.312 13.8 7.4C13.8 3.64 10.76 0.599999 7 0.599999C3.24 0.599999 0.2 3.64 0.2 7.4C0.2 11.16 3.24 14.2 7 14.2C7.912 14.2 8.776 14.008 9.56 13.664C9.72 13.6 9.88 13.584 10.04 13.64L13.112 14.512ZM10.088 12.392C9.824 12.304 9.56 12.336 9.312 12.464C8.6 12.816 7.84 13 7 13C3.912 13 1.4 10.488 1.4 7.4C1.4 4.312 3.912 1.8 7 1.8C10.088 1.8 12.6 4.312 12.6 7.4C12.6 8.24 12.416 9 12.064 9.712C11.936 9.96 11.904 10.224 11.992 10.488L12.72 13.12L10.088 12.392ZM9.304 6.6C9.744 6.6 10 6.376 10 6C10 5.624 9.744 5.4 9.304 5.4H4.704C4.264 5.4 4 5.624 4 6C4 6.376 4.264 6.6 4.704 6.6H9.304ZM8.304 9.4C8.744 9.4 9 9.176 9 8.8C9 8.424 8.744 8.2 8.304 8.2H4.704C4.264 8.2 4 8.424 4 8.8C4 9.176 4.264 9.4 4.704 9.4H8.304Z" fill="white" fill-opacity="0.8"/>
</svg>
