<svg width="20" height="20" viewBox="0 0 14 14" fill="none" xmlns="http://www.w3.org/2000/svg">
<path d="M2.56 6.25L6.78 2.03C6.92 1.89 7 1.69 7 1.5C7 1.31 6.93 1.11 6.78 0.969999C6.63 0.83 6.44 0.75 6.25 0.75C6.06 0.75 5.86 0.83 5.72 0.969999L0.22 6.47C0.0700001 6.62 1.19209e-07 6.81 1.19209e-07 7C1.19209e-07 7.19 0.0800003 7.38 0.22 7.53L0.25 7.56L5.72 13.03C5.86 13.18 6.06 13.25 6.25 13.25C6.44 13.25 6.63 13.18 6.78 13.03C6.92 12.89 7 12.69 7 12.5C7 12.31 6.93 12.12 6.78 11.97L2.56 7.75H13.25C13.66 7.75 14 7.42 14 7C14 6.59 13.66 6.25 13.25 6.25H2.56Z" fill="white" fill-opacity="0.8"/>
</svg>
