<svg width="20" height="20" viewBox="0 0 14 14" fill="none" xmlns="http://www.w3.org/2000/svg">
<path d="M8.28 0.969999C8.14 0.83 7.94 0.75 7.75 0.75C7.56 0.75 7.37 0.83 7.22 0.969999C7.07 1.11 7 1.31 7 1.5C7 1.69 7.08 1.89 7.22 2.03L11.44 6.25H0.75C0.34 6.25 1.19209e-07 6.59 1.19209e-07 7C1.19209e-07 7.42 0.34 7.75 0.75 7.75H11.44L7.22 11.97C7.07 12.12 7 12.31 7 12.5C7 12.69 7.08 12.89 7.22 13.03C7.37 13.18 7.56 13.25 7.75 13.25C7.94 13.25 8.14 13.18 8.28 13.03L13.75 7.56L13.78 7.53C13.92 7.38 14 7.19 14 7C14 6.81 13.93 6.62 13.78 6.47L8.28 0.969999Z" fill="white" fill-opacity="0.4"/>
</svg>
