<svg width="12" height="12" viewBox="0 0 8 5" fill="none" xmlns="http://www.w3.org/2000/svg">
<path d="M7.28 0.47C7.14 0.33 6.94 0.249999 6.75 0.249999C6.56 0.249999 6.37 0.32 6.22 0.47L4 2.69L1.78 0.47C1.64 0.33 1.44 0.249999 1.25 0.249999C1.06 0.249999 0.86 0.32 0.720001 0.47C0.580001 0.619999 0.5 0.809999 0.5 1C0.5 1.19 0.580001 1.39 0.720001 1.53L3.47 4.28C3.62 4.43 3.81 4.5 4 4.5C4.19 4.5 4.38 4.42 4.53 4.28L4.56 4.25L7.28 1.53C7.43 1.39 7.5 1.19 7.5 1C7.5 0.809999 7.43 0.619999 7.28 0.47Z" fill="white"/>
</svg>
