<svg width="36" height="36" viewBox="0 0 36 36" fill="none" xmlns="http://www.w3.org/2000/svg">
<circle cx="18" cy="18" r="18" fill="white"/>
<path d="M24.856 10.968C24.232 10.344 23.32 10.248 22.824 10.744L16.576 16.992C16.248 17.32 15.992 17.712 15.832 18.152L15.32 19.536C14.896 20.608 15.832 21.528 16.928 21.112L18.296 20.56C18.696 20.4 19.064 20.16 19.368 19.856L25.648 13.576C26.152 13.072 26.048 12.16 25.424 11.536L24.856 10.968ZM24 21.696C24 23.288 22.888 24.4 21.296 24.4H14.704C13.112 24.4 12 23.288 12 21.696V15.104C12 13.512 13.112 12.4 14.704 12.4H19.2C20.152 12.4 20.144 11.2 19.2 11.2H14.464C12.424 11.2 10.8 12.832 10.8 14.864V21.936C10.8 23.968 12.424 25.6 14.464 25.6H21.536C23.496 25.6 25.2 23.968 25.2 21.936V17.2C25.2 16.28 24 16.28 24 17.2V21.696ZM23.768 13.752L22.64 12.616L23.56 11.696C23.648 11.608 23.864 11.64 24.016 11.8L24.584 12.368C24.744 12.528 24.776 12.744 24.696 12.816L23.768 13.752ZM18.344 19.192C18.2 19.328 18.072 19.408 17.92 19.464L16.4 20.056C16.384 20.064 16.376 20.056 16.384 20.04L16.936 18.488C17 18.312 17.088 18.176 17.216 18.04L21.784 13.472L22.912 14.6L18.344 19.192Z" fill="#3F0E40"/>
</svg>
